<svg width="453" height="420" viewBox="0 0 453 420" fill="none" xmlns="http://www.w3.org/2000/svg">
<path d="M396.431 201.713L350.448 189.848L340.201 83.0291H452.799L442.541 189.832L396.431 201.713Z" fill="#0D0D0D"/>
<path d="M433.759 183.031L442.525 91.7629H396.5V192.631L433.759 183.031Z" fill="#0D0D0D"/>
<path d="M363.693 131.381L364.956 144.482H396.5V131.381H363.693ZM361.154 104.864L362.435 117.965H396.5V104.864H361.154ZM396.5 165.405L396.438 165.421L380.74 161.481L379.736 151.032H365.586L367.56 171.603L396.435 179.052L396.5 179.036V165.405Z" fill="#EED14C"/>
<path d="M366.701 54H383.773V60.6356H373.84V67.2712H383.774V73.9064H366.701V54ZM387.188 54H404.26V59.7701H394.327V60.924H404.26V74.1952H387.188V68.1359H397.121V66.982H387.187L387.188 54ZM407.675 54H424.748V59.7701H414.815V60.924H424.748V74.1952H407.675V68.1359H417.608V66.982H407.676V54H407.675Z" fill="black"/>
<path d="M429.218 131.381L431.762 104.864H396.452V117.965H416.314L415.032 131.381H396.452V144.482H413.809L412.173 161.473L396.451 165.417V179.046L425.349 171.603L425.561 169.389L428.874 134.899L429.218 131.381Z" fill="#EED14C"/>
<g clip-path="url(#clip0_61_21)">
<path d="M10.2834 194.223L0 79.2515H113L102.705 194.205L56.4307 206.993L10.2834 194.223Z" fill="black"/>
<path d="M56.5 197.218L93.8922 186.886L102.69 88.6522H56.5V197.218Z" fill="black"/>
<path d="M56.4999 131.294H37.7805L36.4876 116.854H56.4999V102.753H21.0273L21.366 106.536L24.8429 145.394H56.4999V131.294ZM56.4999 167.915L56.4383 167.931L40.6829 163.691L39.6758 152.445H25.475L27.4569 174.585L56.4348 182.604L56.4999 182.586V167.915Z" fill="#EED14C"/>
<path d="M10.5134 48.0072H17.7025V55.087H24.2787V48.0072H31.4681V69.4467H24.279V62.2675H17.7028V69.4467H10.5141V48.0072H10.5134ZM40.9219 55.1169H34.5933V48.0072H54.4436V55.1169H48.1119V69.4467H40.9225L40.9219 55.1169ZM57.5937 48.0072H65.0896L69.7008 55.5404L74.3076 48.0072H81.8066V69.4467H74.6472V58.8201L69.7011 66.443H69.5777L64.6279 58.8201V69.4467H57.594V48.0072H57.5937ZM85.3845 48.0072H92.5757V62.36H102.686V69.4467H85.3845V48.0072Z" fill="black"/>
<path d="M56.4512 131.294V145.394H73.8707L72.2286 163.682L56.4512 167.927V182.597L85.4519 174.585L85.6646 172.203L88.9889 135.08L89.3341 131.294H85.522H56.4512ZM56.4512 102.753V116.854H90.6213L90.9051 113.685L91.5496 106.536L91.8879 102.753H56.4512Z" fill="#EED14C"/>
</g>
<path d="M227 229.592C210.198 229.592 196.584 242.525 196.584 258.487C196.584 274.448 210.198 287.382 227 287.382C243.801 287.382 257.416 274.448 257.416 258.487C257.416 242.525 243.801 229.592 227 229.592Z" fill="black"/>
<path d="M120.948 309.655C123.938 310.597 126.927 311.553 129.987 312.374C128.995 316.155 128.131 319.883 127.323 323.733C120.353 358.751 125.793 386.502 143.19 396.031C161.125 405.869 191.272 395.775 220.625 371.362C222.948 369.41 225.272 367.391 227.595 365.238C230.513 367.957 233.573 370.541 236.619 373.057C265.038 396.273 293.13 405.667 310.47 396.152C328.405 386.314 334.242 356.477 326.677 320.139C326.082 317.367 325.416 314.527 324.679 311.62C326.804 311.055 328.858 310.422 330.927 309.79C369.248 297.744 397 278.243 397 258.244C397 239.133 370.834 220.588 334.709 208.785C331.125 207.654 327.541 206.564 323.957 205.555C324.552 203.227 325.09 200.885 325.614 198.557C333.788 160.954 328.405 130.753 310.272 120.781C292.804 111.252 264.315 121.158 235.5 145.006C232.638 147.334 229.862 149.797 227.198 152.26C225.399 150.618 223.543 148.976 221.688 147.401C191.47 121.911 161.196 111.185 143.062 121.225C125.666 130.821 120.481 159.272 127.791 194.829C128.528 198.368 129.321 201.827 130.242 205.366C125.992 206.497 121.812 207.762 117.888 209.094C82.4292 220.763 57 239.187 57 258.244C57 277.934 84.0867 297.664 120.948 309.655ZM211.261 361.052C200.31 370.581 187.617 378.145 173.804 383.326C166.438 386.664 157.938 386.987 150.358 384.147C139.804 378.346 135.412 356.073 141.391 326.101C142.127 322.575 142.921 319.036 143.842 315.563C158.717 318.591 173.719 320.677 188.934 321.741C197.703 333.544 207.323 344.835 217.622 355.427C215.497 357.378 213.372 359.276 211.247 361.039L211.261 361.052ZM295.595 242.592C292.478 237.034 289.291 231.489 285.962 226.065C282.703 220.709 279.318 215.406 275.804 210.171C286.5 211.436 296.728 213.132 306.291 215.218C303.231 224.558 299.647 233.642 295.595 242.592ZM295.723 274.004C299.973 283.156 303.698 292.428 306.943 301.957C296.643 304.164 286.231 305.873 275.733 307.004C279.317 301.701 282.703 296.278 286.033 290.854C289.418 285.296 292.606 279.683 295.723 274.004ZM288.044 258.312C283.596 267.019 278.808 275.592 273.708 284.044C268.664 292.428 263.281 300.571 257.643 308.646C247.754 309.346 237.455 309.655 227.028 309.655C216.602 309.655 206.515 309.346 196.754 308.767C190.974 300.759 185.534 292.55 180.42 284.165C175.306 275.78 170.588 267.261 166.14 258.554H166.112C170.489 249.846 175.278 241.327 180.321 232.943C185.364 224.558 190.818 216.416 196.528 208.408C206.487 207.708 216.644 207.331 227.014 207.331C237.384 207.331 247.598 207.708 257.501 208.408C263.139 216.362 268.523 224.491 273.637 232.821C278.751 241.152 283.525 249.671 288.044 258.312ZM167.953 226.187C164.695 231.543 161.508 237.02 158.518 242.579C154.339 233.185 150.812 223.979 147.893 215.083C157.456 213.065 167.613 211.423 178.168 210.158C174.668 215.393 171.212 220.749 167.953 226.187ZM158.532 274.502C161.592 280.06 164.709 285.551 168.024 290.975C171.41 296.466 174.867 301.957 178.522 307.313C168.166 306.237 157.867 304.662 147.709 302.576C150.628 293.492 154.282 284.098 158.532 274.502ZM227.538 345.71C220.767 338.779 213.995 331.094 207.422 322.817C213.797 323.073 220.37 323.194 227.014 323.194C233.857 323.194 240.557 323.073 247.202 322.75C241.096 330.758 234.523 338.402 227.538 345.71ZM314.338 364.659C313.728 372.344 309.748 379.531 303.373 384.389C292.818 390.19 270.307 382.626 245.997 362.816C243.207 360.541 240.416 358.078 237.568 355.561C247.726 344.902 257.09 333.611 265.59 321.754C280.791 320.556 295.935 318.349 310.881 315.133C311.547 317.717 312.142 320.301 312.68 322.831C315.938 336.464 316.463 350.649 314.338 364.659ZM320.103 218.556C323.56 219.498 326.875 220.507 330.063 221.516C361.003 231.61 382.72 246.63 382.72 258.11C382.72 270.478 359.543 286.439 326.408 296.843C324.552 297.408 322.696 297.973 320.769 298.485C316.122 284.73 310.413 271.299 303.84 258.231C310.215 245.365 315.598 232.108 320.103 218.556ZM244.85 155.221C269.571 134.791 292.606 126.783 303.103 132.517C314.323 138.64 318.644 163.363 311.603 195.851C311.136 197.991 310.668 200.077 310.073 202.163C295.326 199.014 280.394 196.74 265.377 195.475C256.75 183.725 247.315 172.501 237.087 161.963C239.679 159.635 242.201 157.428 244.85 155.221ZM227.142 171.626C234.112 178.813 240.685 186.377 246.791 194.196C233.644 193.631 220.427 193.631 207.28 194.196C213.783 186.067 220.498 178.504 227.142 171.626ZM150.103 132.961C161.267 126.783 186.03 135.612 212.125 157.562C213.783 158.949 215.44 160.469 217.168 161.977C206.869 172.501 197.378 183.725 188.679 195.461C173.677 196.726 158.802 198.933 144.054 202.029C143.19 198.812 142.468 195.528 141.731 192.245C135.483 161.708 139.606 138.694 150.103 132.961ZM122.549 221.893C126.332 220.628 130.185 219.498 134.038 218.421C138.558 232.108 143.998 245.553 150.302 258.54C143.927 271.73 138.416 285.349 133.84 299.225L133.826 299.238C131.035 298.485 128.315 297.664 125.595 296.775C111.457 292.55 95.3775 285.861 83.7608 277.099C77.06 272.685 72.5408 265.875 71.28 258.231C71.28 246.684 92.2608 231.92 122.549 221.893Z" fill="black"/>
<path d="M183.08 1.75879V83.9108H271.1V1.75879H183.08ZM229.019 72.0353C227.723 74.4949 225.245 76.1119 222.376 76.8915C217.966 77.8365 213.75 77.2984 210.612 75.5397C208.511 74.3374 206.871 72.4868 205.76 70.3553C207.993 69.0822 210.221 67.8012 212.454 66.528C212.513 66.5517 212.687 66.8483 212.924 67.2315C213.776 68.5677 214.513 69.5127 215.961 70.1742C217.384 70.6257 220.503 70.917 221.71 68.5808C222.447 67.3943 222.21 63.4988 222.21 59.2752C222.21 52.6365 222.244 46.1082 222.244 39.3882H230.476C230.476 46.4442 230.519 53.5185 230.476 60.564C230.493 64.8822 230.895 68.8092 229.019 72.0353ZM263.174 69.8644C260.314 79.002 244.356 79.2987 237.983 73.2612C236.636 71.841 235.792 71.0982 234.988 69.4575C238.377 67.6384 238.377 67.6384 241.673 65.8587C243.464 68.4285 245.121 69.8408 248.099 70.4183C252.141 70.8777 256.208 69.5835 255.297 65.5778C254.36 62.3044 247.022 61.509 242.027 58.0099C236.956 54.831 235.769 47.1083 239.935 42.6957C241.324 41.0629 243.692 39.8449 246.176 39.2595L248.769 38.9472C253.747 38.8527 256.86 40.0785 259.144 42.462C259.78 43.0632 260.297 43.7115 261.27 45.1185C258.618 46.6962 258.627 46.6804 254.827 48.9773C254.014 47.3445 252.67 46.3208 251.247 45.8772C249.039 45.2524 246.252 45.9323 245.675 48.111C245.475 48.783 245.518 49.4078 245.835 50.5155C246.73 52.4213 249.734 53.2482 252.428 54.4032C260.185 57.3405 262.803 60.4853 263.447 64.2338C264.066 67.4599 263.295 69.552 263.18 69.8644H263.174Z" fill="black"/>
<defs>
<clipPath id="clip0_61_21">
<rect width="113" height="159" fill="white" transform="translate(0 48)"/>
</clipPath>
</defs>
</svg>
